<svg xmlns="http://www.w3.org/2000/svg" viewBox="0 0 64 64" id="cloud-upload"><path fill="#6886c5" d="M50.9888,27.3354a19,19,0,0,0-37.9776,0A13.993,13.993,0,0,0,16,55H26a1,1,0,0,1-1-1V40H20a1,1,0,0,1-.7349-1.6782l12-13a1.0317,1.0317,0,0,1,1.47,0l12,13A1,1,0,0,1,44,40H39V54a1,1,0,0,1-1,1H48a13.993,13.993,0,0,0,2.9888-27.6646Z"></path><path d="M50.9888,27.3354A19.0238,19.0238,0,0,0,32,9V25.0142a.9974.9974,0,0,1,.7349.3076l12,13A1,1,0,0,1,44,40H39V54a1,1,0,0,1-1,1H48a13.993,13.993,0,0,0,2.9888-27.6646Z" opacity=".1"></path></svg>