<?xml version="1.0" encoding="utf-8"?>
<!-- Generator: Adobe Illustrator 27.5.0, SVG Export Plug-In . SVG Version: 6.00 Build 0)  -->
<svg version="1.1" xmlns="http://www.w3.org/2000/svg" xmlns:xlink="http://www.w3.org/1999/xlink" x="0px" y="0px"
	 viewBox="0 0 750 500" style="enable-background:new 0 0 750 500;" xml:space="preserve">
<g id="BACKGROUND">
	<rect style="fill:#FFFFFF;" width="750" height="500"/>
	<g>
		<rect style="fill:#6706B2;" width="125" height="125"/>
		<path style="fill:#121F4C;" d="M20.146,30.232c0,41.212,33.409,74.622,74.622,74.622c10.765,0,20.988-2.297,30.232-6.4V0H26.546
			C22.444,9.244,20.146,19.467,20.146,30.232z"/>
		<rect x="78.347" style="fill:#15B1FF;" width="46.653" height="46.653"/>
		<polygon style="fill:#6BFCFC;" points="62.775,125 0,125 0,62.225 		"/>
		<rect x="125" style="fill:#6BFCFC;" width="125" height="125"/>
		<path style="fill:#121F4C;" d="M187.5,125H125V62.5h0C159.518,62.5,187.5,90.482,187.5,125L187.5,125z"/>
		<polygon style="fill:#15B1FF;" points="250,61.949 188.051,0 250,0 		"/>
		<rect x="250" style="fill:#15B1FF;" width="125" height="125"/>
		<path style="fill:#121F4C;" d="M312.5,62.5L312.5,62.5C277.982,62.5,250,34.518,250,0v0h125v0C375,34.518,347.018,62.5,312.5,62.5
			z"/>
		<path style="fill:#FFFFFF;" d="M312.5,114.751L312.5,114.751c-18.257,0-33.058-14.8-33.058-33.058l0,0
			c0-18.257,14.8-33.058,33.058-33.058l0,0c18.257,0,33.058,14.8,33.058,33.058l0,0C345.558,99.951,330.757,114.751,312.5,114.751z"
			/>
		<rect x="375" style="fill:#6BFCFC;" width="125" height="125"/>
		<path style="fill:#6706B2;" d="M500,125h-78.374C395.875,125,375,104.125,375,78.374V0h125V125z"/>
		<path style="fill:#121F4C;" d="M500,125L500,125c-69.036,0-125-55.964-125-125v0h125V125z"/>
		<rect x="500" style="fill:#121F4C;" width="125" height="125"/>
		<path style="fill:#6BFCFC;" d="M625,125H500V0h0C569.036,0,625,55.964,625,125L625,125z"/>
		<rect x="625" style="fill:#121F4C;" width="125" height="125"/>
		<path style="fill:#FFFFFF;" d="M750,125H625V0h0C694.036,0,750,55.964,750,125L750,125z"/>
		<path style="fill:#6706B2;" d="M716.48,101.324h-67.804V33.52h0C686.123,33.52,716.48,63.877,716.48,101.324L716.48,101.324z"/>
		<rect y="125" style="fill:#121F4C;" width="125" height="125"/>
		<path style="fill:#6BFCFC;" d="M125,250H0V125h64.607C97.961,125,125,152.039,125,185.393V250z"/>
		<polygon style="fill:#121F4C;" points="59.716,220.607 59.716,179.381 100.942,179.381 		"/>
		<rect y="125" style="fill:#6706B2;" width="35.658" height="125"/>
		<rect x="125" y="125" style="fill:#FFFFFF;" width="125" height="125"/>
		<rect x="125" y="161.109" style="opacity:0.68;fill:#6BFCFC;" width="125" height="52.782"/>
		<rect x="250" y="125" style="fill:#121F4C;" width="125" height="125"/>
		<rect x="303.029" y="178.029" style="fill:#6706B2;" width="18.943" height="18.943"/>
		<path style="fill:#FFFFFF;" d="M375,250l0-62.5c-34.518,0-62.5-27.982-62.5-62.5l-62.5,0h125V250z"/>
		<polygon style="fill:#6706B2;" points="312.439,250 250,250 250,187.561 		"/>
		<polygon style="fill:#6BFCFC;" points="283.664,250 250,250 250,216.336 		"/>
		<rect x="375" y="125" style="fill:#121F4C;" width="125" height="125"/>
		<path style="fill:#6706B2;" d="M500,250H375V125h66.049C473.607,125,500,151.393,500,183.951V250z"/>
		<path style="fill:none;stroke:#6BFCFC;stroke-miterlimit:10;" d="M437.5,238.754L437.5,238.754
			c-28.307,0-51.254-22.947-51.254-51.254v0c0-28.307,22.947-51.254,51.254-51.254h0c28.307,0,51.254,22.947,51.254,51.254v0
			C488.754,215.807,465.807,238.754,437.5,238.754z"/>
		<path style="fill:none;stroke:#6BFCFC;stroke-miterlimit:10;" d="M437.5,229.531L437.5,229.531
			c-23.213,0-42.031-18.818-42.031-42.031v0c0-23.213,18.818-42.031,42.031-42.031l0,0c23.213,0,42.031,18.818,42.031,42.031v0
			C479.531,210.713,460.713,229.531,437.5,229.531z"/>
		<path style="fill:none;stroke:#6BFCFC;stroke-miterlimit:10;" d="M437.5,221.968L437.5,221.968
			c-19.036,0-34.468-15.432-34.468-34.468l0,0c0-19.036,15.432-34.468,34.468-34.468l0,0c19.036,0,34.468,15.432,34.468,34.468l0,0
			C471.968,206.536,456.536,221.968,437.5,221.968z"/>
		<path style="fill:none;stroke:#6BFCFC;stroke-miterlimit:10;" d="M437.5,221.968L437.5,221.968
			c-19.036,0-34.468-15.432-34.468-34.468l0,0c0-19.036,15.432-34.468,34.468-34.468l0,0c19.036,0,34.468,15.432,34.468,34.468l0,0
			C471.968,206.536,456.536,221.968,437.5,221.968z"/>
		<path style="fill:none;stroke:#6BFCFC;stroke-miterlimit:10;" d="M437.5,213.891L437.5,213.891
			c-14.575,0-26.391-11.815-26.391-26.391l0,0c0-14.575,11.816-26.391,26.391-26.391l0,0c14.575,0,26.391,11.816,26.391,26.391l0,0
			C463.891,202.075,452.075,213.891,437.5,213.891z"/>
		<path style="fill:none;stroke:#6BFCFC;stroke-miterlimit:10;" d="M437.5,206.942L437.5,206.942
			c-10.738,0-19.442-8.705-19.442-19.442l0,0c0-10.738,8.705-19.442,19.442-19.442l0,0c10.738,0,19.442,8.705,19.442,19.442l0,0
			C456.942,198.238,448.238,206.942,437.5,206.942z"/>
		<path style="fill:none;stroke:#6BFCFC;stroke-miterlimit:10;" d="M437.5,199.852L437.5,199.852
			c-6.822,0-12.352-5.53-12.352-12.352l0,0c0-6.822,5.53-12.352,12.352-12.352l0,0c6.822,0,12.352,5.53,12.352,12.352l0,0
			C449.852,194.322,444.322,199.852,437.5,199.852z"/>
		<rect x="500" y="125" style="fill:#6706B2;" width="125" height="125"/>
		<g>
			<rect x="511.193" y="125" style="fill:#FFFFFF;" width="2.726" height="125"/>
			<rect x="521.428" y="125" style="fill:#FFFFFF;" width="2.726" height="125"/>
			<rect x="531.662" y="125" style="fill:#FFFFFF;" width="2.726" height="125"/>
			<rect x="541.897" y="125" style="fill:#FFFFFF;" width="2.726" height="125"/>
			<rect x="552.131" y="125" style="fill:#FFFFFF;" width="2.726" height="125"/>
			<rect x="562.366" y="125" style="fill:#FFFFFF;" width="2.726" height="125"/>
			<rect x="572.6" y="125" style="fill:#FFFFFF;" width="2.726" height="125"/>
			<rect x="582.834" y="125" style="fill:#FFFFFF;" width="2.726" height="125"/>
			<rect x="593.069" y="125" style="fill:#FFFFFF;" width="2.726" height="125"/>
			<rect x="603.303" y="125" style="fill:#FFFFFF;" width="2.726" height="125"/>
			<rect x="613.538" y="125" style="fill:#FFFFFF;" width="2.726" height="125"/>
		</g>
		<rect x="625" y="125" style="fill:#6706B2;" width="125" height="125"/>
		<path style="fill:#121F4C;" d="M750,250L750,250c-69.036,0-125-55.964-125-125v0h125V250z"/>
		<path style="fill:#15B1FF;" d="M750,211.118L750,211.118c-47.562,0-86.118-38.556-86.118-86.118v0H750V211.118z"/>
		<rect y="250" style="fill:#15B1FF;" width="125" height="125"/>
		<polygon style="fill:#6706B2;" points="125,325.015 45.25,250 125,250 		"/>
		<rect x="125" y="250" style="fill:#121F4C;" width="125" height="125"/>
		<polygon style="fill:#FFFFFF;" points="125,315.686 125,250 190.686,250 		"/>
		<polygon style="fill:#6706B2;" points="178.667,331.846 178.667,303.667 206.846,303.667 		"/>
		<polygon style="fill:#FFFFFF;" points="203.229,375 222.143,375 250,347.143 250,328.229 203.229,328.229 		"/>
		<rect x="250" y="250" style="fill:#6706B2;" width="125" height="125"/>
		
			<rect x="286.789" y="250" transform="matrix(-1 -1.224647e-16 1.224647e-16 -1 577.7775 625)" style="fill:#FFFFFF;" width="4.2" height="125"/>
		
			<rect x="329.811" y="250" transform="matrix(-1 -1.224647e-16 1.224647e-16 -1 663.8229 625)" style="fill:#FFFFFF;" width="4.2" height="125"/>
		<rect x="375" y="250" style="fill:#FFFFFF;" width="125" height="125"/>
		<rect x="375" y="250" style="fill:#FFFFFF;" width="125" height="125"/>
		<polygon style="fill:#6BFCFC;" points="438.438,375 375,375 375,311.562 		"/>
		<rect x="500" y="250" style="fill:#6706B2;" width="125" height="125"/>
		<path style="fill:#121F4C;" d="M625,375L625,375c-69.036,0-125-55.964-125-125v0h125V375z"/>
		<rect x="625" y="250" style="fill:#121F4C;" width="125" height="125"/>
		<path style="fill:#15B1FF;" d="M750,375H625v0c0-69.036,55.964-125,125-125h0V375z"/>
		<path style="fill:#FFFFFF;" d="M750,375h-88.151v0c0-48.685,39.467-88.151,88.151-88.151h0V375z"/>
		<path style="fill:#121F4C;" d="M750,375h-56.594l0,0c0-31.256,25.338-56.594,56.594-56.594h0V375z"/>
		<path style="opacity:0.5;fill:#6706B2;" d="M736.056,361.056h-53.001v0c0-29.272,23.729-53.001,53.001-53.001h0V361.056z"/>
		<rect y="375" style="fill:#FFFFFF;" width="125" height="125"/>
		<path style="fill:#6706B2;" d="M125,500H0v0c0-69.036,55.964-125,125-125h0V500z"/>
		<path style="fill:#FFFFFF;" d="M125,500H36.628v0c0-48.806,39.565-88.372,88.372-88.372h0V500z"/>
		<path style="fill:#15B1FF;" d="M125,500H68.541v0c0-31.182,25.278-56.459,56.459-56.459h0V500z"/>
		<path style="fill:#15B1FF;" d="M125,500H68.541v0c0-31.182,25.278-56.459,56.459-56.459h0V500z"/>
		<rect x="125" y="375" style="fill:#121F4C;" width="125" height="125"/>
		<path style="opacity:0.4;fill:#FFFFFF;" d="M250,457.39v-45.778L213.388,375h-51.777L125,411.612l0,45.779
			C163.551,479.674,211.449,479.674,250,457.39z"/>
		<rect x="250" y="375" style="fill:#121F4C;" width="125" height="125"/>
		<path style="fill:#6BFCFC;" d="M312.5,467.232L312.5,467.232c-16.42,0-29.732-13.311-29.732-29.731v0
			c0-16.42,13.311-29.732,29.732-29.732l0,0c16.42,0,29.732,13.311,29.732,29.732v0C342.232,453.92,328.92,467.232,312.5,467.232z"
			/>
		<rect x="375" y="375" style="fill:#15B1FF;" width="125" height="125"/>
		<rect x="401.391" y="375" style="fill:#121F4C;" width="98.609" height="84.576"/>
		<rect x="374.925" y="415.424" style="opacity:0.62;fill:#6BFCFC;" width="98.609" height="84.576"/>
		<rect x="411.109" y="423.406" style="fill:#FFFFFF;" width="53.118" height="27.042"/>
		<path style="fill:#6706B2;" d="M422.268,485.56L422.268,485.56c17.011,0,30.8-13.79,30.8-30.8v-31.354h-30.8V485.56z"/>
		<rect x="500" y="375" style="fill:#6706B2;" width="125" height="125"/>
		<path style="fill:#6BFCFC;" d="M500,500L500,500l0-125h125v0C625,444.036,569.036,500,500,500z"/>
		<path style="fill:#121F4C;" d="M500,477.423L500,477.423L500,375h102.423v0C602.423,431.567,556.567,477.423,500,477.423z"/>
		<path style="fill:#FFFFFF;" d="M500,450.56L500,450.56l0-75.56h75.56v0C575.56,416.731,541.731,450.56,500,450.56z"/>
		<path style="fill:#15B1FF;" d="M500,424.566L500,424.566L500,375h49.566v0C549.566,402.375,527.375,424.566,500,424.566z"/>
		<rect x="625" y="375" style="fill:#121F4C;" width="125" height="125"/>
		<path style="fill:#6706B2;" d="M750,500h-63.015C652.751,500,625,472.249,625,438.015V375h125V500z"/>
		<path style="fill:#6BFCFC;" d="M750,397.799L750,397.799c-12.592,0-22.799-10.208-22.799-22.799l0,0H750V397.799z"/>
		<polygon style="fill:#6BFCFC;" points="500,250 500,125 625,125 		"/>
		<polygon style="fill:#6706B2;" points="375,500 250,375 375,375 		"/>
		<g>
			<rect x="136.672" y="125" style="fill:#6706B2;" width="2.619" height="125"/>
			<rect x="164.75" y="125" style="fill:#6706B2;" width="2.619" height="125"/>
			<rect x="150.711" y="125" style="fill:#6706B2;" width="2.619" height="125"/>
			<rect x="178.788" y="125" style="fill:#6706B2;" width="2.619" height="125"/>
			<rect x="234.944" y="125" style="fill:#6706B2;" width="2.619" height="125"/>
			<rect x="220.905" y="125" style="fill:#6706B2;" width="2.619" height="125"/>
			<rect x="192.827" y="125" style="fill:#6706B2;" width="2.619" height="125"/>
			<rect x="206.866" y="125" style="fill:#6706B2;" width="2.619" height="125"/>
		</g>
		<g>
			<path style="fill:#6BFCFC;" d="M269.843,262.715c0,1.362-1.104,2.466-2.466,2.466c-1.362,0-2.466-1.104-2.466-2.466
				c0-1.362,1.104-2.466,2.466-2.466C268.739,260.249,269.843,261.353,269.843,262.715z"/>
			<path style="fill:#6BFCFC;" d="M269.843,282.843c0,1.362-1.104,2.466-2.466,2.466c-1.362,0-2.466-1.104-2.466-2.466
				c0-1.362,1.104-2.466,2.466-2.466C268.739,280.377,269.843,281.481,269.843,282.843z"/>
			<path style="fill:#6BFCFC;" d="M269.843,302.971c0,1.362-1.104,2.466-2.466,2.466c-1.362,0-2.466-1.104-2.466-2.466
				c0-1.362,1.104-2.466,2.466-2.466C268.739,300.505,269.843,301.609,269.843,302.971z"/>
			<path style="fill:#6BFCFC;" d="M269.843,323.099c0,1.362-1.104,2.466-2.466,2.466c-1.362,0-2.466-1.104-2.466-2.466
				c0-1.362,1.104-2.466,2.466-2.466C268.739,320.633,269.843,321.737,269.843,323.099z"/>
			<path style="fill:#6BFCFC;" d="M269.843,343.227c0,1.362-1.104,2.466-2.466,2.466c-1.362,0-2.466-1.104-2.466-2.466
				c0-1.362,1.104-2.466,2.466-2.466C268.739,340.762,269.843,341.866,269.843,343.227z"/>
			<path style="fill:#6BFCFC;" d="M269.843,363.355c0,1.362-1.104,2.466-2.466,2.466c-1.362,0-2.466-1.104-2.466-2.466
				s1.104-2.466,2.466-2.466C268.739,360.89,269.843,361.994,269.843,363.355z"/>
		</g>
		<g>
			<path style="fill:#6BFCFC;" d="M312.866,262.715c0,1.362-1.104,2.466-2.466,2.466c-1.362,0-2.466-1.104-2.466-2.466
				c0-1.362,1.104-2.466,2.466-2.466C311.762,260.249,312.866,261.353,312.866,262.715z"/>
			<path style="fill:#6BFCFC;" d="M312.866,282.843c0,1.362-1.104,2.466-2.466,2.466c-1.362,0-2.466-1.104-2.466-2.466
				c0-1.362,1.104-2.466,2.466-2.466C311.762,280.377,312.866,281.481,312.866,282.843z"/>
			<path style="fill:#6BFCFC;" d="M312.866,302.971c0,1.362-1.104,2.466-2.466,2.466c-1.362,0-2.466-1.104-2.466-2.466
				c0-1.362,1.104-2.466,2.466-2.466C311.762,300.505,312.866,301.609,312.866,302.971z"/>
			<path style="fill:#6BFCFC;" d="M312.866,323.099c0,1.362-1.104,2.466-2.466,2.466c-1.362,0-2.466-1.104-2.466-2.466
				c0-1.362,1.104-2.466,2.466-2.466C311.762,320.633,312.866,321.737,312.866,323.099z"/>
			<path style="fill:#6BFCFC;" d="M312.866,343.227c0,1.362-1.104,2.466-2.466,2.466c-1.362,0-2.466-1.104-2.466-2.466
				c0-1.362,1.104-2.466,2.466-2.466C311.762,340.762,312.866,341.866,312.866,343.227z"/>
			<path style="fill:#6BFCFC;" d="M312.866,363.355c0,1.362-1.104,2.466-2.466,2.466c-1.362,0-2.466-1.104-2.466-2.466
				s1.104-2.466,2.466-2.466C311.762,360.89,312.866,361.994,312.866,363.355z"/>
		</g>
		<g>
			<path style="fill:#6BFCFC;" d="M355.889,262.715c0,1.362-1.104,2.466-2.466,2.466c-1.362,0-2.466-1.104-2.466-2.466
				c0-1.362,1.104-2.466,2.466-2.466C354.785,260.249,355.889,261.353,355.889,262.715z"/>
			<path style="fill:#6BFCFC;" d="M355.889,282.843c0,1.362-1.104,2.466-2.466,2.466c-1.362,0-2.466-1.104-2.466-2.466
				c0-1.362,1.104-2.466,2.466-2.466C354.785,280.377,355.889,281.481,355.889,282.843z"/>
			<path style="fill:#6BFCFC;" d="M355.889,302.971c0,1.362-1.104,2.466-2.466,2.466c-1.362,0-2.466-1.104-2.466-2.466
				c0-1.362,1.104-2.466,2.466-2.466C354.785,300.505,355.889,301.609,355.889,302.971z"/>
			<path style="fill:#6BFCFC;" d="M355.889,323.099c0,1.362-1.104,2.466-2.466,2.466c-1.362,0-2.466-1.104-2.466-2.466
				c0-1.362,1.104-2.466,2.466-2.466C354.785,320.633,355.889,321.737,355.889,323.099z"/>
			<path style="fill:#6BFCFC;" d="M355.889,343.227c0,1.362-1.104,2.466-2.466,2.466c-1.362,0-2.466-1.104-2.466-2.466
				c0-1.362,1.104-2.466,2.466-2.466C354.785,340.762,355.889,341.866,355.889,343.227z"/>
			<path style="fill:#6BFCFC;" d="M355.889,363.355c0,1.362-1.104,2.466-2.466,2.466c-1.362,0-2.466-1.104-2.466-2.466
				s1.104-2.466,2.466-2.466C354.785,360.89,355.889,361.994,355.889,363.355z"/>
		</g>
		<g>
			<path style="fill:#FFFFFF;" d="M29.845,275.71c0.963,0.963,0.963,2.524,0,3.487c-0.963,0.963-2.524,0.963-3.487,0
				c-0.963-0.963-0.963-2.524,0-3.487C27.321,274.747,28.882,274.747,29.845,275.71z"/>
			<path style="fill:#FFFFFF;" d="M44.078,289.942c0.963,0.963,0.963,2.524,0,3.487c-0.963,0.963-2.524,0.963-3.487,0
				c-0.963-0.963-0.963-2.524,0-3.487C41.554,288.979,43.115,288.979,44.078,289.942z"/>
			<path style="fill:#FFFFFF;" d="M58.311,304.175c0.963,0.963,0.963,2.524,0,3.487c-0.963,0.963-2.524,0.963-3.487,0
				c-0.963-0.963-0.963-2.524,0-3.487C55.787,303.212,57.348,303.212,58.311,304.175z"/>
			<circle style="fill:#FFFFFF;" cx="70.8" cy="320.151" r="2.466"/>
			<path style="fill:#FFFFFF;" d="M86.776,332.641c0.963,0.963,0.963,2.524,0,3.487c-0.963,0.963-2.524,0.963-3.487,0
				c-0.963-0.963-0.963-2.524,0-3.487C84.252,331.678,85.813,331.678,86.776,332.641z"/>
			<path style="fill:#FFFFFF;" d="M101.009,346.873c0.963,0.963,0.963,2.524,0,3.487c-0.963,0.963-2.524,0.963-3.487,0
				c-0.963-0.963-0.963-2.524,0-3.487C98.485,345.91,100.046,345.91,101.009,346.873z"/>
		</g>
		<path style="opacity:0.68;fill:#6BFCFC;" d="M312.5,143.713L312.5,143.713c-10.335,0-18.713-8.378-18.713-18.713l0,0
			c0-10.335,8.378-18.713,18.713-18.713l0,0c10.335,0,18.713,8.378,18.713,18.713l0,0
			C331.213,135.335,322.835,143.713,312.5,143.713z"/>
		<path style="fill:#121F4C;" d="M125,205.917c-24.246,0.012-43.898,19.67-43.898,43.918c0,0.055,0.004,0.11,0.004,0.165H125
			V205.917z"/>
		
			<ellipse transform="matrix(0.5896 -0.8077 0.8077 0.5896 -5.5276 82.4281)" style="fill:#FFFFFF;" cx="78.347" cy="46.653" rx="16.967" ry="16.967"/>
		<path style="fill:#121F4C;" d="M0,306.872V375h69.205C66.452,338.282,36.875,309.055,0,306.872z"/>
		<path style="fill:#FFFFFF;" d="M0.862,331.701c-0.289,0-0.574,0.016-0.862,0.022V375h44.161
			C44.161,351.086,24.776,331.701,0.862,331.701z"/>
		<circle style="fill:#FFFFFF;" cx="625" cy="250" r="22.382"/>
		
			<ellipse transform="matrix(0.8233 -0.5677 0.5677 0.8233 -69.4768 379.0175)" style="fill:#15B1FF;" cx="573.92" cy="301.08" rx="15.827" ry="15.827"/>
		<circle style="fill:#6BFCFC;" cx="535.602" cy="339.398" r="11.169"/>
		<g>
			<g>
				<path style="fill:#6BFCFC;" d="M710.155,416.036c1.48,0,2.68-1.2,2.68-2.68c0-1.48-1.2-2.681-2.68-2.681
					c-1.48,0-2.681,1.2-2.681,2.681C707.475,414.836,708.675,416.036,710.155,416.036z"/>
				<path style="fill:#6BFCFC;" d="M710.155,420.333c-1.48,0-2.681,1.2-2.681,2.68s1.2,2.68,2.681,2.68c1.48,0,2.68-1.2,2.68-2.68
					S711.635,420.333,710.155,420.333z"/>
				<path style="fill:#6BFCFC;" d="M710.155,429.991c-1.48,0-2.681,1.2-2.681,2.68c0,1.48,1.2,2.68,2.681,2.68
					c1.48,0,2.68-1.2,2.68-2.68C712.836,431.191,711.635,429.991,710.155,429.991z"/>
				<path style="fill:#6BFCFC;" d="M710.155,439.648c-1.48,0-2.681,1.2-2.681,2.68c0,1.48,1.2,2.681,2.681,2.681
					c1.48,0,2.68-1.2,2.68-2.681C712.836,440.849,711.635,439.648,710.155,439.648z"/>
				<path style="fill:#6BFCFC;" d="M710.155,449.306c-1.48,0-2.681,1.2-2.681,2.68s1.2,2.681,2.681,2.681
					c1.48,0,2.68-1.2,2.68-2.681S711.635,449.306,710.155,449.306z"/>
				<path style="fill:#6BFCFC;" d="M710.155,458.964c-1.48,0-2.681,1.2-2.681,2.68s1.2,2.681,2.681,2.681
					c1.48,0,2.68-1.2,2.68-2.681S711.635,458.964,710.155,458.964z"/>
			</g>
			<g>
				<path style="fill:#6BFCFC;" d="M697.585,416.036c1.48,0,2.68-1.2,2.68-2.68c0-1.48-1.2-2.681-2.68-2.681
					c-1.48,0-2.68,1.2-2.68,2.681C694.905,414.836,696.105,416.036,697.585,416.036z"/>
				<path style="fill:#6BFCFC;" d="M697.585,420.333c-1.48,0-2.68,1.2-2.68,2.68s1.2,2.68,2.68,2.68c1.48,0,2.68-1.2,2.68-2.68
					S699.065,420.333,697.585,420.333z"/>
				<path style="fill:#6BFCFC;" d="M697.585,429.991c-1.48,0-2.68,1.2-2.68,2.68c0,1.48,1.2,2.68,2.68,2.68
					c1.48,0,2.68-1.2,2.68-2.68C700.266,431.191,699.065,429.991,697.585,429.991z"/>
				<path style="fill:#6BFCFC;" d="M697.585,439.648c-1.48,0-2.68,1.2-2.68,2.68c0,1.48,1.2,2.681,2.68,2.681
					c1.48,0,2.68-1.2,2.68-2.681C700.266,440.849,699.065,439.648,697.585,439.648z"/>
				<path style="fill:#6BFCFC;" d="M697.585,449.306c-1.48,0-2.68,1.2-2.68,2.68s1.2,2.681,2.68,2.681c1.48,0,2.68-1.2,2.68-2.681
					S699.065,449.306,697.585,449.306z"/>
				<path style="fill:#6BFCFC;" d="M697.585,458.964c-1.48,0-2.68,1.2-2.68,2.68s1.2,2.681,2.68,2.681c1.48,0,2.68-1.2,2.68-2.681
					S699.065,458.964,697.585,458.964z"/>
			</g>
			<g>
				<path style="fill:#6BFCFC;" d="M685.015,416.036c1.48,0,2.68-1.2,2.68-2.68c0-1.48-1.2-2.681-2.68-2.681
					c-1.48,0-2.681,1.2-2.681,2.681C682.334,414.836,683.535,416.036,685.015,416.036z"/>
				<path style="fill:#6BFCFC;" d="M685.015,420.333c-1.48,0-2.681,1.2-2.681,2.68s1.2,2.68,2.681,2.68c1.48,0,2.68-1.2,2.68-2.68
					S686.495,420.333,685.015,420.333z"/>
				<path style="fill:#6BFCFC;" d="M685.015,429.991c-1.48,0-2.681,1.2-2.681,2.68c0,1.48,1.2,2.68,2.681,2.68
					c1.48,0,2.68-1.2,2.68-2.68C687.695,431.191,686.495,429.991,685.015,429.991z"/>
				<path style="fill:#6BFCFC;" d="M685.015,439.648c-1.48,0-2.681,1.2-2.681,2.68c0,1.48,1.2,2.681,2.681,2.681
					c1.48,0,2.68-1.2,2.68-2.681C687.695,440.849,686.495,439.648,685.015,439.648z"/>
				<path style="fill:#6BFCFC;" d="M685.015,449.306c-1.48,0-2.681,1.2-2.681,2.68s1.2,2.681,2.681,2.681
					c1.48,0,2.68-1.2,2.68-2.681S686.495,449.306,685.015,449.306z"/>
				<path style="fill:#6BFCFC;" d="M685.015,458.964c-1.48,0-2.681,1.2-2.681,2.68s1.2,2.681,2.681,2.681
					c1.48,0,2.68-1.2,2.68-2.681S686.495,458.964,685.015,458.964z"/>
			</g>
			<g>
				<path style="fill:#6BFCFC;" d="M672.445,416.036c1.48,0,2.68-1.2,2.68-2.68c0-1.48-1.2-2.681-2.68-2.681
					c-1.48,0-2.68,1.2-2.68,2.681C669.764,414.836,670.964,416.036,672.445,416.036z"/>
				<path style="fill:#6BFCFC;" d="M672.445,420.333c-1.48,0-2.68,1.2-2.68,2.68s1.2,2.68,2.68,2.68c1.48,0,2.68-1.2,2.68-2.68
					S673.925,420.333,672.445,420.333z"/>
				<path style="fill:#6BFCFC;" d="M672.445,429.991c-1.48,0-2.68,1.2-2.68,2.68c0,1.48,1.2,2.68,2.68,2.68
					c1.48,0,2.68-1.2,2.68-2.68C675.125,431.191,673.925,429.991,672.445,429.991z"/>
				<path style="fill:#6BFCFC;" d="M672.445,439.648c-1.48,0-2.68,1.2-2.68,2.68c0,1.48,1.2,2.681,2.68,2.681
					c1.48,0,2.68-1.2,2.68-2.681C675.125,440.849,673.925,439.648,672.445,439.648z"/>
				<path style="fill:#6BFCFC;" d="M672.445,449.306c-1.48,0-2.68,1.2-2.68,2.68s1.2,2.681,2.68,2.681c1.48,0,2.68-1.2,2.68-2.681
					S673.925,449.306,672.445,449.306z"/>
				<path style="fill:#6BFCFC;" d="M672.445,458.964c-1.48,0-2.68,1.2-2.68,2.68s1.2,2.681,2.68,2.681c1.48,0,2.68-1.2,2.68-2.681
					S673.925,458.964,672.445,458.964z"/>
			</g>
			<g>
				<path style="fill:#6BFCFC;" d="M659.875,416.036c1.48,0,2.68-1.2,2.68-2.68c0-1.48-1.2-2.681-2.68-2.681s-2.68,1.2-2.68,2.681
					C657.194,414.836,658.394,416.036,659.875,416.036z"/>
				<path style="fill:#6BFCFC;" d="M659.875,420.333c-1.48,0-2.68,1.2-2.68,2.68s1.2,2.68,2.68,2.68s2.68-1.2,2.68-2.68
					S661.355,420.333,659.875,420.333z"/>
				<path style="fill:#6BFCFC;" d="M659.875,429.991c-1.48,0-2.68,1.2-2.68,2.68c0,1.48,1.2,2.68,2.68,2.68s2.68-1.2,2.68-2.68
					C662.555,431.191,661.355,429.991,659.875,429.991z"/>
				<path style="fill:#6BFCFC;" d="M659.875,439.648c-1.48,0-2.68,1.2-2.68,2.68c0,1.48,1.2,2.681,2.68,2.681s2.68-1.2,2.68-2.681
					C662.555,440.849,661.355,439.648,659.875,439.648z"/>
				<path style="fill:#6BFCFC;" d="M659.875,449.306c-1.48,0-2.68,1.2-2.68,2.68s1.2,2.681,2.68,2.681s2.68-1.2,2.68-2.681
					S661.355,449.306,659.875,449.306z"/>
				<path style="fill:#6BFCFC;" d="M659.875,458.964c-1.48,0-2.68,1.2-2.68,2.68s1.2,2.681,2.68,2.681s2.68-1.2,2.68-2.681
					S661.355,458.964,659.875,458.964z"/>
			</g>
		</g>
		<rect x="147.42" y="18.266" style="opacity:0.47;fill:#6706B2;" width="8.83" height="86.551"/>
		<rect x="216.49" y="18.266" style="opacity:0.47;fill:#6706B2;" width="8.83" height="86.551"/>
		<circle style="fill:#6706B2;" cx="453.573" cy="43.259" r="12.284"/>
		
			<ellipse transform="matrix(0.9221 -0.3869 0.3869 0.9221 -27.376 234.0617)" style="fill:#121F4C;" cx="567.661" cy="185.026" rx="18.08" ry="18.08"/>
		<path style="opacity:0.23;fill:#6BFCFC;" d="M498.031,61.554c0.66,0,1.314-0.029,1.969-0.05V0h-63.523
			C436.477,33.995,464.035,61.554,498.031,61.554z"/>
		<path style="fill:#FFFFFF;" d="M499.193,25.218c0.271,0,0.538-0.012,0.807-0.02V0h-26.025
			C473.975,13.927,485.266,25.218,499.193,25.218z"/>
		<rect x="500" y="61.137" style="fill:#6706B2;" width="63.863" height="63.863"/>
		<rect x="529.475" y="25.028" style="fill:#121F4C;" width="4.913" height="136.081"/>
		
			<ellipse transform="matrix(0.2285 -0.9735 0.9735 0.2285 484.4388 716.1735)" style="fill:#121F4C;" cx="694.075" cy="52.44" rx="12.983" ry="12.983"/>
		<path style="fill:#6BFCFC;" d="M705.011,125c0,24.846,20.142,44.988,44.989,44.988V125H705.011z"/>
		<path style="fill:#121F4C;" d="M415.551,250c0.09,46.566,37.862,84.288,84.449,84.288V250H415.551z"/>
		<path style="fill:#6BFCFC;" d="M447.582,250c0.055,28.904,23.501,52.318,52.418,52.318V250H447.582z"/>
		<path style="opacity:0.45;fill:#6706B2;" d="M125,417.61v45.779L161.612,500h51.777L250,463.388V417.61
			C211.449,395.326,163.551,395.326,125,417.61z"/>
		
			<ellipse transform="matrix(0.7376 -0.6752 0.6752 0.7376 -244.7683 240.8342)" style="fill:#FFFFFF;" cx="187.5" cy="435.363" rx="19.939" ry="19.939"/>
		<path style="fill:#121F4C;" d="M194.167,435.363c0,3.682-2.985,6.667-6.667,6.667c-3.682,0-6.667-2.985-6.667-6.667
			c0-3.682,2.985-6.667,6.667-6.667C191.182,428.696,194.167,431.681,194.167,435.363z"/>
		<path style="fill:#FFFFFF;" d="M300.064,449.935L300.064,449.935c0-13.736,11.135-24.871,24.871-24.871h0
			C324.935,438.8,313.8,449.935,300.064,449.935z"/>
		<path style="fill:#6BFCFC;" d="M339.757,410.243L339.757,410.243c0-7.21,5.845-13.054,13.054-13.054l0,0
			C352.812,404.398,346.967,410.243,339.757,410.243z"/>
		<path style="fill:#FFFFFF;" d="M557.201,68.019L557.201,68.019c0-7.21,5.845-13.055,13.054-13.055l0,0
			C570.256,62.175,564.411,68.019,557.201,68.019z"/>
		<path style="fill:#FFFFFF;" d="M599.572,25.649L599.572,25.649c0-7.21,5.845-13.054,13.054-13.054l0,0
			C612.626,19.804,606.782,25.649,599.572,25.649z"/>
		<circle style="fill:#6706B2;" cx="436.476" cy="318.406" r="21.518"/>
		
			<ellipse transform="matrix(0.1602 -0.9871 0.9871 0.1602 -378.3899 380.8159)" style="fill:#121F4C;" cx="34.603" cy="412.78" rx="14.233" ry="14.233"/>
	</g>
</g>
<g id="OBJECTS">
</g>
</svg>
